<?xml version="1.0" encoding="utf-8"?>
<!-- Generator: Adobe Illustrator 21.1.0, SVG Export Plug-In . SVG Version: 6.00 Build 0)  -->
<svg version="1.1" id="Layer_1" xmlns="http://www.w3.org/2000/svg" xmlns:xlink="http://www.w3.org/1999/xlink" x="0px" y="0px"
	 viewBox="0 0 585 835" style="enable-background:new 0 0 585 835;" xml:space="preserve">
<g>
	<g>
		<g>
			
				<line style="fill:none;stroke:#4D4D4D;stroke-width:1.5;stroke-linecap:round;stroke-miterlimit:10;" x1="198" y1="87" x2="198" y2="105.618"/>
			<g>
				<polygon style="fill:#4D4D4D;" points="194.26,104.524 198,111 201.74,104.524 				"/>
			</g>
		</g>
	</g>
	<g>
		<g>
			
				<line style="fill:none;stroke:#4D4D4D;stroke-width:1.5;stroke-linecap:round;stroke-miterlimit:10;" x1="198" y1="184" x2="198" y2="207.618"/>
			<g>
				<polygon style="fill:#4D4D4D;" points="194.26,206.524 198,213 201.74,206.524 				"/>
			</g>
		</g>
	</g>
	<g>
		<g>
			
				<line style="fill:none;stroke:#4D4D4D;stroke-width:1.5;stroke-linecap:round;stroke-miterlimit:10;" x1="125" y1="349" x2="125" y2="376.618"/>
			<g>
				<polygon style="fill:#4D4D4D;" points="121.26,375.524 125,382 128.74,375.524 				"/>
			</g>
		</g>
	</g>
	<g>
		<g>
			
				<line style="fill:none;stroke:#4D4D4D;stroke-width:1.5;stroke-linecap:round;stroke-miterlimit:10;" x1="315" y1="349" x2="315" y2="699.618"/>
			<g>
				<polygon style="fill:#4D4D4D;" points="311.26,698.523 315,705 318.74,698.523 				"/>
			</g>
		</g>
	</g>
	<polyline style="fill:none;stroke:#4D4D4D;stroke-width:1.5;stroke-linecap:round;stroke-miterlimit:10;" points="199,287 199,301 
		125,301 125,322 	"/>
	<polyline style="fill:none;stroke:#4D4D4D;stroke-width:1.5;stroke-linecap:round;stroke-miterlimit:10;" points="199,287 199,301 
		315,301 315,322 	"/>
	<polyline style="fill:none;stroke:#4D4D4D;stroke-width:1.5;stroke-linecap:round;stroke-miterlimit:10;" points="127,549 127,563 
		87,563 87,584 	"/>
	<polyline style="fill:none;stroke:#4D4D4D;stroke-width:1.5;stroke-linecap:round;stroke-miterlimit:10;" points="127,529 127,563 
		175,563 175,584 	"/>
	<g>
		<g>
			
				<line style="fill:none;stroke:#4D4D4D;stroke-width:1.5;stroke-linecap:round;stroke-miterlimit:10;" x1="87" y1="610" x2="87" y2="699.618"/>
			<g>
				<polygon style="fill:#4D4D4D;" points="83.26,698.523 87,705 90.74,698.523 				"/>
			</g>
		</g>
	</g>
	<g>
		<g>
			
				<line style="fill:none;stroke:#4D4D4D;stroke-width:1.5;stroke-linecap:round;stroke-miterlimit:10;" x1="248" y1="678" x2="248" y2="699.618"/>
			<g>
				<polygon style="fill:#4D4D4D;" points="244.26,698.524 248,705 251.74,698.524 				"/>
			</g>
		</g>
	</g>
	<polyline style="fill:none;stroke:#4D4D4D;stroke-width:1.5;stroke-linecap:round;stroke-miterlimit:10;" points="176,612 176,627 
		202,627 	"/>
</g>
</svg>
