<?xml version="1.0" encoding="utf-8"?>
<!-- Generator: Adobe Illustrator 21.1.0, SVG Export Plug-In . SVG Version: 6.00 Build 0)  -->
<svg version="1.1" id="Layer_1" xmlns="http://www.w3.org/2000/svg" xmlns:xlink="http://www.w3.org/1999/xlink" x="0px" y="0px"
	 viewBox="0 0 300 982" style="enable-background:new 0 0 300 982;" xml:space="preserve">
<g>
	<g>
		<g>
			
				<line style="fill:none;stroke:#4D4D4D;stroke-width:1.5;stroke-linecap:round;stroke-miterlimit:10;" x1="111.5" y1="89" x2="111.5" y2="107.618"/>
			<g>
				<polygon style="fill:#4D4D4D;" points="107.76,106.524 111.5,113 115.24,106.524 				"/>
			</g>
		</g>
	</g>
	<g>
		<g>
			
				<line style="fill:none;stroke:#4D4D4D;stroke-width:1.5;stroke-linecap:round;stroke-miterlimit:10;" x1="111.5" y1="242" x2="111.5" y2="275.618"/>
			<g>
				<polygon style="fill:#4D4D4D;" points="107.76,274.524 111.5,281 115.24,274.524 				"/>
			</g>
		</g>
	</g>
	<g>
		<g>
			
				<line style="fill:none;stroke:#4D4D4D;stroke-width:1.5;stroke-linecap:round;stroke-miterlimit:10;" x1="66.5" y1="432" x2="66.5" y2="455.618"/>
			<g>
				<polygon style="fill:#4D4D4D;" points="62.76,454.524 66.5,461 70.24,454.524 				"/>
			</g>
		</g>
	</g>
	<g>
		<g>
			<polyline style="fill:none;stroke:#4D4D4D;stroke-width:1.5;stroke-linecap:round;stroke-miterlimit:10;" points="171.5,432 
				171.5,621.5 225.5,621 225.5,860.618 			"/>
			<g>
				<polygon style="fill:#4D4D4D;" points="221.76,859.524 225.5,866 229.24,859.524 				"/>
			</g>
		</g>
	</g>
	<polyline style="fill:none;stroke:#4D4D4D;stroke-width:1.5;stroke-linecap:round;stroke-miterlimit:10;" points="106.5,369 
		106.5,383 67.5,383 67.5,404 	"/>
	<polyline style="fill:none;stroke:#4D4D4D;stroke-width:1.5;stroke-linecap:round;stroke-miterlimit:10;" points="106.5,369 
		106.5,383 171.5,383 171.5,404 	"/>
	<polyline style="fill:none;stroke:#4D4D4D;stroke-width:1.5;stroke-linecap:round;stroke-miterlimit:10;" points="67.5,666 
		67.5,680 42.5,680 42.5,701 	"/>
	<polyline style="fill:none;stroke:#4D4D4D;stroke-width:1.5;stroke-linecap:round;stroke-miterlimit:10;" points="67.5,666 
		67.5,680 114.5,680 114.5,701 	"/>
	<g>
		<g>
			<polyline style="fill:none;stroke:#4D4D4D;stroke-width:1.5;stroke-linecap:round;stroke-miterlimit:10;" points="41.5,725 
				41.5,834 66.5,834 66.5,861.618 			"/>
			<g>
				<polygon style="fill:#4D4D4D;" points="62.76,860.524 66.5,867 70.24,860.524 				"/>
			</g>
		</g>
	</g>
	<g>
		<g>
			<polyline style="fill:none;stroke:#4D4D4D;stroke-width:1.5;stroke-linecap:round;stroke-miterlimit:10;" points="116.5,814 
				116.5,834 210.5,835 210.5,861.618 			"/>
			<g>
				<polygon style="fill:#4D4D4D;" points="206.76,860.524 210.5,867 214.24,860.524 				"/>
			</g>
		</g>
	</g>
	
		<line style="fill:none;stroke:#4D4D4D;stroke-width:1.5;stroke-linecap:round;stroke-miterlimit:10;" x1="114.5" y1="725" x2="114.5" y2="742"/>
</g>
</svg>
